<?xml version="1.0" encoding="utf-8"?>
<!-- Generator: Adobe Illustrator 16.0.0, SVG Export Plug-In . SVG Version: 6.00 Build 0)  -->
<!DOCTYPE svg PUBLIC "-//W3C//DTD SVG 1.0//EN" "http://www.w3.org/TR/2001/REC-SVG-20010904/DTD/svg10.dtd">
<svg version="1.0" id="Layer_1" xmlns="http://www.w3.org/2000/svg" xmlns:xlink="http://www.w3.org/1999/xlink" x="0px" y="0px"
	 width="100px" height="100px" viewBox="0 0 100 100" enable-background="new 0 0 100 100" xml:space="preserve">
     <path d="M23,13V11H19.93C19.75,9.58 19.19,8.23 18.31,7.1L20.5,4.93L19.07,3.5L16.9,5.69C15.77,4.81 14.42,4.25 13,4.07V1H11V4.07C9.58,4.25 8.23,4.81 7.1,5.69L4.93,3.5L3.5,4.93L5.69,7.1C4.81,8.23 4.25,9.58 4.07,11H1V13H4.07C4.25,14.42 4.81,15.77 5.69,16.9L3.5,19.07L4.93,20.5L7.1,18.31C8.23,19.19 9.58,19.75 11,19.93V23H13V19.93C14.42,19.75 15.77,19.19 16.9,18.31L19.07,20.5L20.5,19.07L18.31,16.9C19.19,15.77 19.75,14.42 19.93,13H23M12,8A4,4 0 0,0 8,12H6A6,6 0 0,1 12,6V8Z" />
<polygon points="90,65.001 31.667,65.001 31.667,24.999 90,24.999 80,44.999 "/>
<path style="fill:#000000;" d="M30,83.334h-3.333V22.408C28.651,21.253,30,19.127,30,16.666c0-3.682-2.988-6.667-6.667-6.667
	c-3.685,0-6.667,2.985-6.667,6.667c0,2.461,1.348,4.587,3.333,5.742v60.926h-3.333c-3.682,0-6.667,2.982-6.667,6.667h26.667
	C36.667,86.316,33.682,83.334,30,83.334z"/>
</svg>
